# xmcd CD database file
#
# Track frame offsets:
#	150
#	44330
#	73529
#	101800
#	149427
#	189184
#	219095
#
# Disc length: 3416 seconds
#
# Revision: 0
# Processed by: cddbd v1.5.2PL0 Copyright (c) Steve Scherf et al.
# Submitted via: CDex 1.70beta2
#
DISCID=600d5607
DTITLE=Kang Taehwan - Seven Breath
DYEAR=2002
DGENRE=Jazz
TTITLE0=The Breath of Bless
TTITLE1=The Breath in The Past
TTITLE2=A Deep Breath
TTITLE3=The Breath of Confession
TTITLE4=The Breath of Patience
TTITLE5=The Breath in The Relaxation
TTITLE6=The Breath of A Vegabond
EXTD=YEAR: 2002
EXTT0=
EXTT1=
EXTT2=
EXTT3=
EXTT4=
EXTT5=
EXTT6=
PLAYORDER=
